<?xml version="1.0" encoding="utf-8"?>
<!-- Generator: Adobe Illustrator 23.0.3, SVG Export Plug-In . SVG Version: 6.00 Build 0)  -->
<svg version="1.1" id="Layer_1" xmlns="http://www.w3.org/2000/svg" xmlns:xlink="http://www.w3.org/1999/xlink" x="0px" y="0px"
	 viewBox="0 0 697 558" style="enable-background:new 0 0 697 558;" xml:space="preserve">
<style type="text/css">
	.st0{fill-rule:evenodd;clip-rule:evenodd;fill:#296D8A;}
</style>
<g>
	<g>
		<path class="st0" d="M267,359c-14-0.1-94.7-32.8-116-32.1c-6,1.6-14.5,4.9-19.4,11.7c-17.6,24.3,19.5,47.1,24.5,50.5
			c24.7,16.6,92.1,33.7,92.1,33.7c4.1-0.1,7.5,3.2,7.6,7.3c0.1,4.1-3.2,7.5-7.3,7.6c0,0-57.8-8.5-89.1-31.9
			c-6.1-4.5-40.4-28.2-48.8-40.7c-33-49.2-37.8-68.9-59.8-129c-3.4-9.3-13.5-22.8-32.7-19.8c-20.5,3.2-18.3,29-17.5,36.3
			C8.3,332.1,58,426.4,121.7,470.6c49,33.9,98,54.9,196.2,60.8c58.6,3.5,123.3,26.5,123.3,26.5s-14.7-36.5-42.4-101.6
			C354.3,351.8,276.8,359,267,359z M670.2,73c-3-6.7-14-30-33.3-22.6c-18.2,7-20.2,23.7-18.5,33.5c11,63.1,16.6,82.6,12.7,141.7
			c-1,15-18.9,52.7-21.9,59.7c-15.4,35.9-61.2,72.2-61.2,72.2c-3.6,2-8.2,0.7-10.2-2.9c-2-3.6-0.7-8.2,2.9-10.2
			c0,0,49.9-48.5,63-75.2c2.7-5.4,23.4-43.7-4-56c-7.7-3.4-16.7-2.1-22.6-0.4c-18.8,10-72.4,78.8-84.5,85.8
			c-8.5,5-79.2,37.5-65.5,150.1c8.5,70.2,14.1,109.2,14.1,109.2s44.6-52.2,93.5-84.5c82.1-54.2,114-96.8,139.5-150.7
			C707.3,252.4,703.2,145.9,670.2,73z M75.6,226.9c2.8,7.7,5.4,14.8,7.7,21.3c11.1,30.8,17.6,48.9,29.9,70.9
			c7.4-8.3,17.9-14.4,30.5-17.8l0.4-0.1l2.9-0.7l2.9-0.1c15.7-0.6,40.6,7.3,79.8,20.3c13.7,4.5,32.2,10.7,38.1,11.8
			c0.1,0,0.2,0,0.3,0c8.9-0.2,35.9-0.8,66.8,13.8c25.3,11.9,46.8,30.8,64.5,56.3c2.6-30.9,11.8-58,27.7-81
			c19.5-28.1,43.2-41.1,51-45.3c0.1-0.1,0.2-0.1,0.3-0.1c4.6-3.9,17.6-18.5,27.1-29.2c27.4-30.9,45.1-50.1,59-57.5l2.6-1.4l2.8-0.8
			l0.4-0.1c12.7-3.4,24.8-3.3,35.3,0.1c-0.4-25.2-3.8-44.2-9.6-76.4c-1.2-6.8-2.6-14.2-4-22.3c-2.6-15.1,0.5-32.6,11.4-46
			C564,6.2,510-9.7,451,6.1C387.2,23.2,344,64,320.4,107c-42-25.4-99.5-39.2-166.6-21.2c-58.8,15.7-96.4,56-112,106.7
			C58.5,198.4,70.2,212.2,75.6,226.9z"/>
	</g>
</g>
</svg>
